<svg height="13" viewBox="0 0 124 13" width="124" xmlns="http://www.w3.org/2000/svg"><path d="m9.756 12.636h-1.476l-.27-1.152-.648-1.984-2.592-.05-2.34.05-.7 1.908-.29 1.224h-1.44l4.23-11.532h1.67zm-2.79-4.356-1.872-5.688h-.126l-2.088 5.688 2.02.036zm13.554 4.356h-1.472l-.27-1.152-.648-1.984-2.592-.05-2.338.05-.7 1.908-.3 1.228h-1.44l4.234-11.536h1.674zm-2.79-4.356-1.872-5.688h-.126l-2.084 5.688 2.016.036zm8.748-7.2a3.64 3.64 0 0 1 2.61.873 3.3 3.3 0 0 1 .918 2.511 4 4 0 0 1 -1.143 3.024 4.369 4.369 0 0 1 -3.159 1.1h-1.368v.45l.072 3.6h-1.46l.09-3.474-.09-8.064zm-.23 6.336a2.632 2.632 0 0 0 1.7-.9 2.959 2.959 0 0 0 .585-1.926q0-2.232-2.376-2.322l-1.746.054-.054 5.058zm13.28-6.336a3.64 3.64 0 0 1 2.61.873 3.3 3.3 0 0 1 .918 2.511 4 4 0 0 1 -1.143 3.024 4.371 4.371 0 0 1 -3.159 1.1h-1.368v.45l.072 3.6h-1.458l.09-3.474-.09-8.064zm-.234 6.336a2.632 2.632 0 0 0 1.7-.9 2.959 2.959 0 0 0 .585-1.926q0-2.232-2.376-2.322l-1.746.054-.057 5.058zm13.32 4.158-.144.81a2.575 2.575 0 0 1 -1.022.36 1.478 1.478 0 0 1 -.837-.369 1.668 1.668 0 0 1 -.441-.891h-.112a5.276 5.276 0 0 1 -2.232 1.26 2.913 2.913 0 0 1 -2.025-.63 2.259 2.259 0 0 1 -.675-1.8l.022-2.286-.054-3.546 1.44-.126-.108 5.616a1.728 1.728 0 0 0 .351 1.152 1.282 1.282 0 0 0 1.031.412 3.261 3.261 0 0 0 2.232-1.08v-5.974l1.368-.126-.09 6.516a.9.9 0 0 0 .117.531.482.482 0 0 0 .405.153 2.109 2.109 0 0 0 .63-.108zm5.994-7.274a2.86 2.86 0 0 1 2.385 1.034 4.615 4.615 0 0 1 .819 2.925 4.869 4.869 0 0 1 -1.044 3.34 3.691 3.691 0 0 1 -2.92 1.179 4.374 4.374 0 0 1 -1.764-.4l-.986.456-.25-.146.108-3.51-.09-9.052 1.422-.126-.056 5.526h.108a7.031 7.031 0 0 1 1.116-.774 5.609 5.609 0 0 1 1.152-.452zm-.63 7.434a2.226 2.226 0 0 0 1.818-.81 3.7 3.7 0 0 0 .666-2.39 4.191 4.191 0 0 0 -.514-2.263 1.642 1.642 0 0 0 -1.467-.8 2.255 2.255 0 0 0 -1.107.306 5.027 5.027 0 0 0 -1.161.954l-.013 2.288.053 2.141a3.1 3.1 0 0 0 1.725.576zm7.812-2.716.09 3.618h-1.422l.108-3.51-.09-9 1.424-.126zm3.492.126-.054-4.662 1.386-.126-.036 4.662.036 3.618h-1.4zm.666-8.444a.778.778 0 0 1 .576.216.8.8 0 0 1 .216.594.87.87 0 0 1 -.225.63.82.82 0 0 1 -.621.234.774.774 0 0 1 -.585-.216.851.851 0 0 1 -.207-.612.844.844 0 0 1 .225-.612.82.82 0 0 1 .621-.234zm6.93 3.546a5.276 5.276 0 0 1 1.161.135 4.953 4.953 0 0 1 1.053.351l-.252 1.244-.162.054a3.376 3.376 0 0 0 -1.854-.612 1.938 1.938 0 0 0 -1.656.81 3.771 3.771 0 0 0 -.594 2.272 3.77 3.77 0 0 0 .621 2.3 2.019 2.019 0 0 0 1.719.837 3.476 3.476 0 0 0 1.017-.162 4.323 4.323 0 0 0 1-.45l.162.09-.163 1.206a5.572 5.572 0 0 1 -2.2.468 3.168 3.168 0 0 1 -2.57-1.125 4.685 4.685 0 0 1 -.936-3.087 4.738 4.738 0 0 1 .981-3.159 3.316 3.316 0 0 1 2.673-1.17zm6.858 0a2.753 2.753 0 0 1 1.845.576 1.97 1.97 0 0 1 .675 1.584q0 .306-.108 2.214t-.108 2.232a.888.888 0 0 0 .126.549.53.53 0 0 0 .432.153 2.056 2.056 0 0 0 .612-.108l.144.126-.144.81a2.572 2.572 0 0 1 -1.026.36 1.38 1.38 0 0 1 -.891-.4 1.348 1.348 0 0 1 -.351-.936h-.126a5.5 5.5 0 0 1 -1.926 1.354 2.726 2.726 0 0 1 -1.881-.6 2.1 2.1 0 0 1 -.675-1.647 1.808 1.808 0 0 1 .423-1.26 2.382 2.382 0 0 1 1.251-.669l2.916-.684.018-1.17a1.483 1.483 0 0 0 -.369-1.08 1.4 1.4 0 0 0 -1.053-.378 2.853 2.853 0 0 0 -1.224.288 5.845 5.845 0 0 0 -1.314.9l-.144-.072-.18-1.026a5.089 5.089 0 0 1 3.078-1.114zm-1.44 5.2a1.079 1.079 0 0 0 -.522.3.853.853 0 0 0 -.162.567 1.253 1.253 0 0 0 .333.927 1.2 1.2 0 0 0 .891.333 2.766 2.766 0 0 0 2.012-1.273l.052-1.48zm9.99 2.088a2.865 2.865 0 0 0 1.3-.36l.162.11-.144.936a5.442 5.442 0 0 1 -1.8.522 2.406 2.406 0 0 1 -1.476-.756 2.531 2.531 0 0 1 -.45-1.62l.054-1.278-.018-3.726h-1.138l-.076-.106.09-.846h1.1v-1.332l1.242-.54.144.126-.032 1.746h2.448l.072.108-.09.846h-2.43l-.1 4.878a1.413 1.413 0 0 0 .256 1.008 1.167 1.167 0 0 0 .886.286zm3.6-2.394-.054-4.66 1.386-.124-.036 4.662.036 3.618h-1.4zm.666-8.44a.778.778 0 0 1 .576.216.8.8 0 0 1 .216.594.87.87 0 0 1 -.225.63.82.82 0 0 1 -.621.234.774.774 0 0 1 -.585-.216.851.851 0 0 1 -.207-.612.844.844 0 0 1 .225-.612.822.822 0 0 1 .617-.234zm7.038 3.546a3.23 3.23 0 0 1 2.6 1.089 4.6 4.6 0 0 1 .927 3.069 4.841 4.841 0 0 1 -.969 3.232 3.437 3.437 0 0 1 -2.774 1.144 3.25 3.25 0 0 1 -2.619-1.089 4.6 4.6 0 0 1 -.927-3.069 4.815 4.815 0 0 1 .981-3.231 3.466 3.466 0 0 1 2.781-1.143zm-.09 1.008a2.046 2.046 0 0 0 -1.728.774 3.676 3.676 0 0 0 -.594 2.268 4.653 4.653 0 0 0 .585 2.592 1.927 1.927 0 0 0 1.7.864 2.065 2.065 0 0 0 1.728-.752 3.635 3.635 0 0 0 .594-2.268 4.707 4.707 0 0 0 -.585-2.592 1.915 1.915 0 0 0 -1.7-.88zm11.232 1.782a1.638 1.638 0 0 0 -.342-1.152 1.333 1.333 0 0 0 -1.062-.414 3.7 3.7 0 0 0 -2.448 1.278v2.268l.068 3.62h-1.422l.09-3.492-.068-4.662 1.35-.126v1.206h.108a5.428 5.428 0 0 1 2.286-1.278 3.015 3.015 0 0 1 2.061.63 2.23 2.23 0 0 1 .693 1.8l-.036 2.34.072 3.582h-1.44zm6.7-2.772a5.1 5.1 0 0 1 1.98.4l-.2 1.17-.212.054a3.155 3.155 0 0 0 -1.728-.594 1.42 1.42 0 0 0 -.99.342 1.076 1.076 0 0 0 -.378.828.937.937 0 0 0 .387.783 6.738 6.738 0 0 0 1.2.675 10.8 10.8 0 0 1 1.125.585 2.508 2.508 0 0 1 .729.693 1.791 1.791 0 0 1 .306 1.062 2.4 2.4 0 0 1 -.342 1.242 2.482 2.482 0 0 1 -1.008.927 3.356 3.356 0 0 1 -1.584.351 5.1 5.1 0 0 1 -2.394-.594l.18-1.224.162-.108a3.877 3.877 0 0 0 1.087.664 2.987 2.987 0 0 0 1.107.234 1.56 1.56 0 0 0 1.08-.369 1.136 1.136 0 0 0 .414-.873.937.937 0 0 0 -.387-.783 6.738 6.738 0 0 0 -1.2-.675 12.022 12.022 0 0 1 -1.134-.585 2.363 2.363 0 0 1 -.738-.711 1.941 1.941 0 0 1 -.306-1.116 2.163 2.163 0 0 1 .764-1.706 3.06 3.06 0 0 1 2.08-.67z" fill="#00247f"/></svg>