<svg height="26.1" viewBox="0 0 255.3 26.1" width="255.3" xmlns="http://www.w3.org/2000/svg"><g fill="#007160"><path d="m0 .6c1.5 0 3 .1 4.5.1s3-.1 4.5-.1c5.2 0 9.1 2.2 9.1 7.4 0 5.3-4.8 8-9.6 8-.9 0-1.8-.1-2.7-.1v6.2c0 1.4.5 2.4 1.9 2.7v.8c-1.2 0-2.5-.1-3.7-.1s-2.5.1-3.8.1v-.9c1.8-.2 1.9-1.9 1.9-3.5v-7.4c0-3.6-.2-6.8-.2-9.7 0-1.5-.3-2.4-1.7-2.7v-.8zm5.7 12.7c0 1.2.5 1.4 2.2 1.4 4.3 0 5.8-2.6 5.8-6.5 0-3.7-1.7-6.7-5.7-6.7-1.7 0-2.2.3-2.2 1.2z"/><path d="m25 24.6a2.07 2.07 0 0 0 2.1-2.2v-6c0-4.8-.3-9.9-.3-13.1 0-.9-.7-1.5-1.8-1.7v-.8h14.1a9.7553 9.7553 0 0 0 2.8-.6c0 .9-.1 1.8-.1 2.7s.1 1.7.1 2.6h-1.4c-.6-1.7-1.5-3-3.4-3h-6.2v9.5h5.4c2.1 0 2.7-.2 3.6-1.9h1.1c0 1-.1 2.1-.1 3.1 0 1.1.1 2.1.1 3.1h-1.2c-.8-2.5-1.5-2.6-3.5-2.6h-5.4v10h6.1c2.6 0 3.6-.4 5.2-2.7l1.1.6-1.2 4.4a8.4468 8.4468 0 0 0 -1.7-.5 9.15 9.15 0 0 0 -1.7-.1h-13.7z"/><path d="m51.1 24.7a2.1158 2.1158 0 0 0 1.9-2.5v-10.4c0-3.1-.4-5.9-.4-7.7 0-1.5-.5-2.5-1.9-2.9v-.6c1.7 0 3.3.1 5 .1 1.6 0 3.3-.1 5-.1 9.7 0 15.6 4.3 15.6 12.3 0 8.2-4.6 12.6-14.6 12.6-1.8 0-3.6-.1-5.3-.1-1.8 0-3.5.1-5.3.1zm5.7-.9a37.47 37.47 0 0 0 4.4.3c6.8 0 10.2-4.2 10.2-11 0-6.5-4.5-11-10.8-11-1.1 0-2.2.1-3.7.1 0 3.1-.2 6-.2 9v12.6z"/><path d="m91.7 1.4c-1.3.2-1.5 1.1-1.5 2.4 0 3.5-.1 7.7-.1 11.4v6.9c0 1.2.4 2.5 1.7 2.6v.8c-1.2 0-2.5-.1-3.7-.1s-2.5.1-3.7.1v-.8c1.1 0 1.8-1 1.8-2.6v-5.1c0-4.3-.3-10.6-.3-12.8 0-1.5-.1-2.6-1.6-2.8v-.8c1.2 0 2.4.1 3.7.1 1.2 0 2.5-.1 3.7-.1z"/><path d="m105.7 18.3-1 3.1a6.17 6.17 0 0 0 -.2 1.8c0 .9.4 1.5 1.3 1.5v.8c-1 0-2-.1-3.1-.1-1 0-2 .1-3.1.1v-.8c1.4-.3 2.8-3.6 3.5-5.3l7.6-19.2h.4l7.8 20c1.2 3.2 1.6 4.3 2.9 4.5v.8c-1.2 0-2.4-.1-3.6-.1s-2.4.1-3.6.1v-.8a1.1838 1.1838 0 0 0 1.2-1.3 7.4221 7.4221 0 0 0 -.4-1.8l-1.2-3.3zm7.7-1.7-3.6-9.4-3.5 9.4z"/><path d="m148.3 5.2h-1.4c-.4-2.1-1.4-2.7-3.5-2.7h-4.5c0 3.1-.2 7-.2 11.3v7.6c0 2.2.7 2.9 2.2 3.4v.8c-1.4 0-2.7-.1-4.1-.1s-2.7.1-4.1.1v-.9c1.6-.5 2.1-1.3 2.1-3.4v-5.6c0-5.1-.3-10.2-.4-13.3h-4.8c-2 0-3.1.6-3.5 2.7h-1.4v-5a15.525 15.525 0 0 0 2.1.4 14.7687 14.7687 0 0 0 2.1.1h15.8a9.3424 9.3424 0 0 0 3.4-.6v5.2z"/><path d="m156.3 24.7a1.9834 1.9834 0 0 0 1.8-2.1v-9.2c0-3.1-.2-6.1-.2-9.2 0-1.7-.2-2.6-2-2.9v-.8c1.1 0 2.3.1 3.5.1 1.1 0 2.1-.1 4.8-.1 6.4 0 9.6 3.2 9.6 7.1 0 3.6-3.3 5.9-6.5 6.7l7.2 8.3a6.1876 6.1876 0 0 0 2.7 2v.8c-1.2 0-2.4-.1-3.6-.1s-2.4.1-3.5.1v-.7a.43.43 0 0 0 .4-.4 1.7068 1.7068 0 0 0 -.5-1.1l-5.9-6.9c-.5-.6-1.3-1.5-2.1-1.5v7.1c0 1.5.2 2.6 2 3v.8c-1.3 0-2.5-.1-3.8-.1s-2.5.1-3.8.1v-1zm5.6-11.1c.5 0 1 .1 1.4.1 3.3 0 6.1-2.2 6.1-5.6 0-3.3-1.5-6.2-5.4-6.2-.9 0-1.9.1-1.9 1z"/><path d="m192 1.4c-1.3.2-1.5 1.1-1.5 2.4 0 3.5-.1 7.7-.1 11.4v6.9c0 1.2.4 2.5 1.7 2.6v.8c-1.2 0-2.5-.1-3.7-.1s-2.5.1-3.7.1v-.8c1.1 0 1.8-1 1.8-2.6v-5.1c0-4.3-.3-10.6-.3-12.8 0-1.5-.1-2.6-1.6-2.8v-.8c1.2 0 2.4.1 3.7.1 1.2 0 2.5-.1 3.7-.1z"/><path d="m223 6.4h-1.5c-1.1-3.4-4.6-4.7-7.7-4.7-6.2 0-8.8 5-8.8 11 0 10.1 7.3 11.8 10.2 11.8a8.1111 8.1111 0 0 0 7.1-3.7l1.1.5-1.1 4a37.5592 37.5592 0 0 1 -7 .8c-10.6 0-15.3-6.6-15.3-13 0-7.3 5.7-12.8 13.7-12.8a28.8213 28.8213 0 0 1 8.9 1.4z"/><path d="m246.5 5.5h-1.3a5.6986 5.6986 0 0 0 -5.8-3.8 4.6329 4.6329 0 0 0 -4.6 4.5c0 7.5 12.2 2.9 12.2 12.5 0 4.6-4 7.2-8.2 7.2a14.46 14.46 0 0 1 -6.3-1.6l-.4-3.8h1.3a5.6706 5.6706 0 0 0 5.4 4 4.4961 4.4961 0 0 0 4.8-4.5c0-6.3-12.2-2.6-12.2-11.9 0-4.7 3.8-7.8 8.3-7.8a14.736 14.736 0 0 1 6.9 1.4v3.8z"/><path d="m253.1 2.2a.5764.5764 0 0 1 -.6.6h-.4v-1.2h.3c.5 0 .7.2.7.6m.9 2.3v-.3h-.2a.3491.3491 0 0 1 -.2-.1l-.6-1.1a.8754.8754 0 0 0 .8-.9q0-.9-1.2-.9h-1.4v.3h.5v2.7h-.5v.3h1.5v-.3h-.5v-1.2h.3l.8 1.4h.7zm.9-1.6a2.4 2.4 0 1 1 -4.8 0 2.4 2.4 0 1 1 4.8 0m.4 0a2.9 2.9 0 1 0 -2.9 2.9 2.9021 2.9021 0 0 0 2.9-2.9"/></g></svg>