<?xml version="1.0" encoding="utf-8"?>
<!-- Generator: Adobe Illustrator 22.0.1, SVG Export Plug-In . SVG Version: 6.00 Build 0)  -->
<svg version="1.1" id="Layer_1" xmlns="http://www.w3.org/2000/svg" xmlns:xlink="http://www.w3.org/1999/xlink" x="0px" y="0px"
	 viewBox="0 0 360 72" style="enable-background:new 0 0 360 72;" xml:space="preserve">
<style type="text/css">
	.st0{fill:#28211F;}
	.st1{fill:#007160;}
</style>
<g>
	<g>
		<path class="st0" d="M54.4,54.5l-0.3-1.2h-1.5l-0.3,1.2h-0.9l1.5-5.7h1.1l1.5,5.7H54.4z M53.3,50.1l-0.6,2.6h1.2L53.3,50.1z"/>
		<path class="st0" d="M58.8,54.5L57,50.8v3.8h-0.9v-5.6H57l1.7,3.5v-3.5h0.9v5.6H58.8z"/>
		<path class="st0" d="M64.5,54.6c-1.8,0-1.9-1.6-1.9-2.9c0-1.4,0.1-2.9,1.9-2.9c1.8,0,1.8,1.6,1.8,3C66.3,53.1,66.2,54.6,64.5,54.6
			z M65.1,49.8c-0.1-0.3-0.3-0.4-0.6-0.4c-0.5,0-0.6,0.3-0.7,0.8c-0.1,0.5-0.1,1.1-0.1,1.6c0,0.5,0,1.1,0.1,1.6
			c0.1,0.4,0.3,0.6,0.7,0.6c0.4,0,0.6-0.3,0.7-0.7c0.1-0.5,0.1-1,0.1-1.5C65.2,51.4,65.2,50.1,65.1,49.8z"/>
		<path class="st0" d="M68.3,49.6v1.8H70v0.7h-1.7v2.4h-1v-5.6h2.8v0.7H68.3z"/>
		<path class="st0" d="M71.9,49.6v1.8h1.7v0.7h-1.7v2.4h-1v-5.6h2.8v0.7H71.9z"/>
		<path class="st0" d="M74.6,54.5v-5.6h1v5.6H74.6z"/>
		<path class="st0" d="M78.5,54.6c-1.7,0-1.9-1.4-1.9-2.7c0-0.7,0.1-1.4,0.3-2.1c0.3-0.8,0.8-1.1,1.6-1.1c1.2,0,1.6,0.6,1.6,1.8
			c0,0.1,0,0.2,0,0.3h-0.9c0-0.6,0.1-1.4-0.6-1.4c-0.5,0-0.7,0.3-0.8,0.7c-0.1,0.6-0.1,1.2-0.1,1.7c0,0.4,0,1.3,0.2,1.6
			c0.1,0.3,0.4,0.4,0.7,0.4c0.8,0,0.8-1,0.7-1.6h0.9c0,0.2,0,0.3,0,0.5C80.1,54,79.7,54.6,78.5,54.6z"/>
		<path class="st0" d="M81.1,54.5v-5.6h1v5.6H81.1z"/>
		<path class="st0" d="M85.7,54.5l-0.3-1.2h-1.5l-0.3,1.2h-0.9l1.5-5.7h1.1l1.5,5.7H85.7z M84.6,50.1L84,52.7h1.2L84.6,50.1z"/>
		<path class="st0" d="M87.4,54.5v-5.6h1v4.9h1.7v0.8H87.4z"/>
		<path class="st0" d="M94,54.6c-1.1,0-1.5-0.6-1.5-1.7c0-0.3,0-0.5,0.1-0.8h0.9c0,0.3-0.1,0.5-0.1,0.8c0,0.4,0,1,0.6,1
			c0.5,0,0.6-0.4,0.6-0.8v-4.2h1v4C95.6,54.1,95.2,54.6,94,54.6z"/>
		<path class="st0" d="M98.4,54.6c-1.8,0-1.9-1.6-1.9-2.9c0-1.4,0.1-2.9,1.9-2.9c1.8,0,1.9,1.6,1.9,3
			C100.3,53.1,100.2,54.6,98.4,54.6z M99.1,49.8c-0.1-0.3-0.3-0.4-0.6-0.4c-0.5,0-0.6,0.3-0.7,0.8c-0.1,0.5-0.1,1.1-0.1,1.6
			c0,0.5,0,1.1,0.1,1.6c0.1,0.4,0.3,0.6,0.7,0.6c0.4,0,0.6-0.3,0.7-0.7c0.1-0.5,0.1-1,0.1-1.5C99.2,51.4,99.2,50.1,99.1,49.8z"/>
		<path class="st0" d="M103,54.6c-1.3,0-1.8-0.7-1.8-1.9l0-3.9h1v3.9c0,0.6,0.1,1.1,0.8,1.1s0.8-0.5,0.8-1.1v-3.9h0.9v3.9
			C104.8,53.9,104.3,54.6,103,54.6z"/>
		<path class="st0" d="M108.5,54.5l-0.2-1.5c-0.1-0.6-0.3-1-0.9-1h-0.4v2.4h-1v-5.6h1.9c1,0,1.6,0.6,1.6,1.6c0,0.8-0.4,1.3-1.2,1.4
			c0.7,0.2,0.9,0.5,1,1.2l0.3,1.5H108.5z M107.4,49.5h-0.4v1.9h0.4c0.7,0,1-0.3,1-0.9C108.3,49.8,108.1,49.5,107.4,49.5z"/>
		<path class="st0" d="M113.1,54.5l-1.8-3.8v3.8h-0.9v-5.6h0.9l1.7,3.5v-3.5h0.9v5.6H113.1z"/>
		<path class="st0" d="M117.5,54.5l-0.3-1.2h-1.5l-0.3,1.2h-0.9l1.5-5.7h1.1l1.5,5.7H117.5z M116.4,50.1l-0.6,2.6h1.2L116.4,50.1z"
			/>
		<path class="st0" d="M119.2,54.5v-5.6h1v4.9h1.7v0.8H119.2z"/>
		<path class="st0" d="M126.4,54.6c-1.8,0-1.9-1.6-1.9-2.9c0-1.4,0.1-2.9,1.9-2.9c1.8,0,1.9,1.6,1.9,3
			C128.3,53.1,128.2,54.6,126.4,54.6z M127.1,49.8c-0.1-0.3-0.3-0.4-0.6-0.4c-0.5,0-0.6,0.3-0.7,0.8c-0.1,0.5-0.1,1.1-0.1,1.6
			c0,0.5,0,1.1,0.1,1.6c0.1,0.4,0.3,0.6,0.7,0.6c0.4,0,0.6-0.3,0.7-0.7c0.1-0.5,0.1-1,0.1-1.5C127.2,51.4,127.2,50.1,127.1,49.8z"/>
		<path class="st0" d="M130.3,49.6v1.8h1.7v0.7h-1.7v2.4h-1v-5.6h2.8v0.7H130.3z"/>
		<path class="st0" d="M136.8,49.6v4.9h-1v-4.9h-1.2v-0.7h3.4v0.8H136.8z"/>
		<path class="st0" d="M141.2,54.5v-2.7h-1.5v2.7h-1v-5.6h1v2.3h1.5v-2.3h1v5.6H141.2z"/>
		<path class="st0" d="M143.3,54.5v-5.6h2.8v0.7h-1.8v1.7h1.6v0.7h-1.6v1.7h1.9v0.8H143.3z"/>
		<path class="st0" d="M151.7,54.5l-0.3-1.2h-1.5l-0.3,1.2h-0.9l1.5-5.7h1.1l1.5,5.7H151.7z M150.6,50.1l-0.6,2.6h1.2L150.6,50.1z"
			/>
		<path class="st0" d="M157.4,54.5v-4l-1.2,4h-0.8l-1.1-3.8v3.8h-0.9v-5.6h1.2l1.3,4.1l1.3-4.1h1.2v5.6H157.4z"/>
		<path class="st0" d="M159.5,54.5v-5.6h2.8v0.7h-1.8v1.7h1.6v0.7h-1.6v1.7h1.9v0.8H159.5z"/>
		<path class="st0" d="M165.9,54.5l-0.2-1.5c-0.1-0.6-0.3-1-0.9-1h-0.4v2.4h-1v-5.6h1.9c1,0,1.6,0.6,1.6,1.6c0,0.8-0.4,1.3-1.2,1.4
			c0.7,0.2,0.9,0.5,1,1.2l0.3,1.5H165.9z M164.8,49.5h-0.4v1.9h0.4c0.7,0,1-0.3,1-0.9C165.8,49.8,165.5,49.5,164.8,49.5z"/>
		<path class="st0" d="M167.8,54.5v-5.6h1v5.6H167.8z"/>
		<path class="st0" d="M171.7,54.6c-1.7,0-1.9-1.4-1.9-2.7c0-0.7,0.1-1.4,0.3-2.1c0.3-0.8,0.8-1.1,1.6-1.1c1.2,0,1.6,0.6,1.6,1.8
			c0,0.1,0,0.2,0,0.3h-0.9c0-0.6,0.1-1.4-0.6-1.4c-0.5,0-0.7,0.3-0.8,0.7c-0.1,0.6-0.1,1.2-0.1,1.7c0,0.4,0,1.3,0.2,1.6
			c0.1,0.3,0.4,0.4,0.7,0.4c0.8,0,0.8-1,0.7-1.6h0.9c0,0.2,0,0.3,0,0.5C173.4,54,173,54.6,171.7,54.6z"/>
		<path class="st0" d="M176.8,54.5l-0.3-1.2H175l-0.3,1.2h-0.9l1.5-5.7h1.1l1.5,5.7H176.8z M175.7,50.1l-0.6,2.6h1.2L175.7,50.1z"/>
		<path class="st0" d="M181.2,54.5l-1.8-3.8v3.8h-0.9v-5.6h0.9l1.7,3.5v-3.5h0.9v5.6H181.2z"/>
		<path class="st0" d="M187.7,54.5l-0.3-1.2h-1.5l-0.3,1.2h-0.9l1.5-5.7h1.1l1.5,5.7H187.7z M186.6,50.1l-0.6,2.6h1.2L186.6,50.1z"
			/>
		<path class="st0" d="M191.1,54.6c-1.7,0-1.9-1.4-1.9-2.7c0-0.7,0.1-1.4,0.3-2.1c0.3-0.8,0.8-1.1,1.6-1.1c1.2,0,1.6,0.6,1.6,1.8
			c0,0.1,0,0.2,0,0.3h-0.9c0-0.6,0.1-1.4-0.6-1.4c-0.5,0-0.7,0.3-0.8,0.7c-0.1,0.6-0.1,1.2-0.1,1.7c0,0.4,0,1.3,0.2,1.6
			c0.1,0.3,0.4,0.4,0.7,0.4c0.8,0,0.8-1,0.7-1.6h0.9c0,0.2,0,0.3,0,0.5C192.8,54,192.3,54.6,191.1,54.6z"/>
		<path class="st0" d="M196.2,54.5l-0.3-1.2h-1.5l-0.3,1.2h-0.9l1.5-5.7h1.1l1.5,5.7H196.2z M195.1,50.1l-0.6,2.6h1.2L195.1,50.1z"
			/>
		<path class="st0" d="M199.7,54.5h-1.9v-5.6h1.8c1.6,0,1.8,1.8,1.8,3C201.5,53.1,201.2,54.5,199.7,54.5z M200,49.8
			c-0.2-0.2-0.5-0.2-0.7-0.2h-0.4v4.3h0.4c0.2,0,0.6-0.1,0.8-0.2c0.4-0.3,0.4-1.3,0.4-1.8C200.4,51.3,200.4,50.2,200,49.8z"/>
		<path class="st0" d="M202.5,54.5v-5.6h2.8v0.7h-1.8v1.7h1.6v0.7h-1.6v1.7h1.9v0.8H202.5z"/>
		<path class="st0" d="M210.4,54.5v-4l-1.2,4h-0.8l-1.1-3.8v3.8h-0.9v-5.6h1.2l1.3,4.1l1.3-4.1h1.2v5.6H210.4z"/>
		<path class="st0" d="M214.5,52.2v2.3h-1v-2.3l-1.5-3.3h1.1l1,2.4l1-2.4h0.9L214.5,52.2z"/>
		<path class="st0" d="M220.4,54.6c-1.8,0-1.9-1.6-1.9-2.9c0-1.4,0.1-2.9,1.9-2.9c1.8,0,1.9,1.6,1.9,3
			C222.2,53.1,222.1,54.6,220.4,54.6z M221,49.8c-0.1-0.3-0.3-0.4-0.6-0.4c-0.5,0-0.6,0.3-0.7,0.8c-0.1,0.5-0.1,1.1-0.1,1.6
			c0,0.5,0,1.1,0.1,1.6c0.1,0.4,0.3,0.6,0.7,0.6c0.4,0,0.6-0.3,0.7-0.7c0.1-0.5,0.1-1,0.1-1.5C221.2,51.4,221.2,50.1,221,49.8z"/>
		<path class="st0" d="M224.2,49.6v1.8h1.7v0.7h-1.7v2.4h-1v-5.6h2.8v0.7H224.2z"/>
		<path class="st0" d="M230.7,52.3c-0.2,0-0.5,0-0.7,0v2.2h-1v-5.6h1.8c1.2,0,1.7,0.7,1.7,1.8C232.4,51.8,231.8,52.3,230.7,52.3z
			 M230.1,49.6c-0.1,0-0.1,0-0.2,0v2.1c0.1,0,0.3,0,0.4,0c0.8,0,1-0.3,1-1C231.4,49.7,231,49.6,230.1,49.6z"/>
		<path class="st0" d="M233.3,54.5v-5.6h2.8v0.7h-1.8v1.7h1.6v0.7h-1.6v1.7h1.9v0.8H233.3z"/>
		<path class="st0" d="M239,54.5h-1.9v-5.6h1.8c1.6,0,1.8,1.8,1.8,3C240.7,53.1,240.5,54.5,239,54.5z M239.2,49.8
			c-0.2-0.2-0.5-0.2-0.7-0.2h-0.4v4.3h0.4c0.2,0,0.6-0.1,0.8-0.2c0.4-0.3,0.4-1.3,0.4-1.8C239.7,51.3,239.6,50.2,239.2,49.8z"/>
		<path class="st0" d="M241.7,54.5v-5.6h1v5.6H241.7z"/>
		<path class="st0" d="M246.4,54.5l-0.3-1.2h-1.5l-0.3,1.2h-0.9l1.5-5.7h1.1l1.5,5.7H246.4z M245.3,50.1l-0.6,2.6h1.2L245.3,50.1z"
			/>
		<path class="st0" d="M249.8,49.6v4.9h-1v-4.9h-1.2v-0.7h3.4v0.8H249.8z"/>
		<path class="st0" d="M254.3,54.5l-0.2-1.5c-0.1-0.6-0.3-1-0.9-1h-0.4v2.4h-1v-5.6h1.9c1,0,1.6,0.6,1.6,1.6c0,0.8-0.4,1.3-1.2,1.4
			c0.7,0.2,0.9,0.5,1,1.2l0.3,1.5H254.3z M253.2,49.5h-0.4v1.9h0.4c0.7,0,1-0.3,1-0.9C254.1,49.8,253.9,49.5,253.2,49.5z"/>
		<path class="st0" d="M256.2,54.5v-5.6h1v5.6H256.2z"/>
		<path class="st0" d="M260.1,54.6c-1.7,0-1.9-1.4-1.9-2.7c0-0.7,0.1-1.4,0.3-2.1c0.3-0.8,0.8-1.1,1.6-1.1c1.2,0,1.6,0.6,1.6,1.8
			c0,0.1,0,0.2,0,0.3h-0.9c0-0.6,0.1-1.4-0.6-1.4c-0.5,0-0.7,0.3-0.8,0.7c-0.1,0.6-0.1,1.2-0.1,1.7c0,0.4,0,1.3,0.2,1.6
			c0.1,0.3,0.4,0.4,0.7,0.4c0.8,0,0.8-1,0.7-1.6h0.9c0,0.2,0,0.3,0,0.5C261.7,54,261.3,54.6,260.1,54.6z"/>
		<path class="st0" d="M264.1,54.6c-1.1,0-1.7-0.5-1.7-1.6c0-0.1,0-0.3,0-0.4l0.9,0c0,0.1,0,0.2,0,0.3c0,0.6,0.2,1,0.8,1
			c0.5,0,0.8-0.4,0.8-0.9c0-1.4-2.5-0.8-2.5-2.7c0-1,0.7-1.5,1.7-1.5c0.9,0,1.5,0.4,1.5,1.4c0,0.2,0,0.3,0,0.5h-0.9
			c0-0.1,0-0.3,0-0.4c0-0.4-0.2-0.8-0.6-0.8c-0.4,0-0.7,0.3-0.7,0.7c0,1.2,2.5,0.7,2.5,2.7C266,54,265.2,54.6,264.1,54.6z"/>
	</g>
	<g>
		<path class="st1" d="M49.8,17.9c1.5,0,3,0.1,4.5,0.1c1.5,0,3-0.1,4.5-0.1c5.2,0,9.1,2.2,9.1,7.4c0,5.3-4.8,8-9.6,8
			c-0.9,0-1.8-0.1-2.7-0.1v6.2c0,1.4,0.5,2.4,1.9,2.7v0.8c-1.2,0-2.5-0.1-3.7-0.1c-1.2,0-2.5,0.1-3.8,0.1V42
			c1.8-0.2,1.9-1.9,1.9-3.5v-7.4c0-3.6-0.2-6.8-0.2-9.7c0-1.5-0.3-2.4-1.7-2.7V17.9z M55.5,30.6c0,1.2,0.5,1.4,2.2,1.4
			c4.3,0,5.8-2.6,5.8-6.5c0-3.7-1.7-6.7-5.7-6.7c-1.7,0-2.2,0.3-2.2,1.2L55.5,30.6z"/>
		<path class="st1" d="M74.8,41.9c1.4-0.1,2.1-1,2.1-2.2v-6c0-4.8-0.3-9.9-0.3-13.1c0-0.9-0.7-1.5-1.8-1.7v-0.8h14.1
			c1,0,2.2-0.4,2.8-0.6c0,0.9-0.1,1.8-0.1,2.7c0,0.9,0.1,1.7,0.1,2.6h-1.4c-0.6-1.7-1.5-3-3.4-3h-6.2v9.5h5.4c2.1,0,2.7-0.2,3.6-1.9
			h1.1c0,1-0.1,2.1-0.1,3.1c0,1.1,0.1,2.1,0.1,3.1h-1.2c-0.8-2.5-1.5-2.6-3.5-2.6h-5.4v10h6.1c2.6,0,3.6-0.4,5.2-2.7l1.1,0.6
			l-1.2,4.4c-0.5-0.2-1.1-0.4-1.7-0.5c-0.5-0.1-1.1-0.1-1.7-0.1H74.8V41.9z"/>
		<path class="st1" d="M100.9,42c1.5-0.4,1.9-1,1.9-2.5V29.1c0-3.1-0.4-5.9-0.4-7.7c0-1.5-0.5-2.5-1.9-2.9v-0.6c1.7,0,3.3,0.1,5,0.1
			c1.6,0,3.3-0.1,5-0.1c9.7,0,15.6,4.3,15.6,12.3c0,8.2-4.6,12.6-14.6,12.6c-1.8,0-3.6-0.1-5.3-0.1c-1.8,0-3.5,0.1-5.3,0.1V42z
			 M106.6,41.1c1.7,0.2,3.1,0.3,4.4,0.3c6.8,0,10.2-4.2,10.2-11c0-6.5-4.5-11-10.8-11c-1.1,0-2.2,0.1-3.7,0.1c0,3.1-0.2,6-0.2,9
			V41.1z"/>
		<path class="st1" d="M141.5,18.7c-1.3,0.2-1.5,1.1-1.5,2.4c0,3.5-0.1,7.7-0.1,11.4v6.9c0,1.2,0.4,2.5,1.7,2.6v0.8
			c-1.2,0-2.5-0.1-3.7-0.1c-1.2,0-2.5,0.1-3.7,0.1V42c1.1,0,1.8-1,1.8-2.6v-5.1c0-4.3-0.3-10.6-0.3-12.8c0-1.5-0.1-2.6-1.6-2.8v-0.8
			c1.2,0,2.4,0.1,3.7,0.1c1.2,0,2.5-0.1,3.7-0.1V18.7z"/>
		<path class="st1" d="M155.5,35.6l-1,3.1c-0.2,0.6-0.2,1.4-0.2,1.8c0,0.9,0.4,1.5,1.3,1.5v0.8c-1,0-2-0.1-3.1-0.1
			c-1,0-2,0.1-3.1,0.1V42c1.4-0.3,2.8-3.6,3.5-5.3l7.6-19.2h0.4l7.8,20c1.2,3.2,1.6,4.3,2.9,4.5v0.8c-1.2,0-2.4-0.1-3.6-0.1
			s-2.4,0.1-3.6,0.1V42c0.7,0,1.2-0.5,1.2-1.3c0-0.5-0.2-1.1-0.4-1.8l-1.2-3.3H155.5z M163.2,33.9l-3.6-9.4l-3.5,9.4H163.2z"/>
		<path class="st1" d="M198.1,22.5h-1.4c-0.4-2.1-1.4-2.7-3.5-2.7h-4.5c0,3.1-0.2,7-0.2,11.3v7.6c0,2.2,0.7,2.9,2.2,3.4v0.8
			c-1.4,0-2.7-0.1-4.1-0.1c-1.4,0-2.7,0.1-4.1,0.1V42c1.6-0.5,2.1-1.3,2.1-3.4V33c0-5.1-0.3-10.2-0.4-13.3h-4.8
			c-2,0-3.1,0.6-3.5,2.7h-1.4v-5c0.7,0.2,1.4,0.3,2.1,0.4c0.7,0.1,1.4,0.1,2.1,0.1h15.8c1,0,2.6-0.2,3.4-0.6V22.5z"/>
		<path class="st1" d="M206.1,42c1.2-0.3,1.8-0.9,1.8-2.1v-9.2c0-3.1-0.2-6.1-0.2-9.2c0-1.7-0.2-2.6-2-2.9v-0.8
			c1.1,0,2.3,0.1,3.5,0.1c1.1,0,2.1-0.1,4.8-0.1c6.4,0,9.6,3.2,9.6,7.1c0,3.6-3.3,5.9-6.5,6.7l7.2,8.3c0.5,0.6,1.7,1.8,2.7,2v0.8
			c-1.2,0-2.4-0.1-3.6-0.1c-1.2,0-2.4,0.1-3.5,0.1V42c0.2,0,0.4-0.2,0.4-0.4c0-0.3-0.1-0.6-0.5-1.1l-5.9-6.9
			c-0.5-0.6-1.3-1.5-2.1-1.5v7.1c0,1.5,0.2,2.6,2,3v0.8c-1.3,0-2.5-0.1-3.8-0.1c-1.3,0-2.5,0.1-3.8,0.1V42z M211.7,30.9
			c0.5,0,1,0.1,1.4,0.1c3.3,0,6.1-2.2,6.1-5.6c0-3.3-1.5-6.2-5.4-6.2c-0.9,0-1.9,0.1-1.9,1L211.7,30.9z"/>
		<path class="st1" d="M241.8,18.7c-1.3,0.2-1.5,1.1-1.5,2.4c0,3.5-0.1,7.7-0.1,11.4v6.9c0,1.2,0.4,2.5,1.7,2.6v0.8
			c-1.2,0-2.5-0.1-3.7-0.1c-1.2,0-2.5,0.1-3.7,0.1V42c1.1,0,1.8-1,1.8-2.6v-5.1c0-4.3-0.3-10.6-0.3-12.8c0-1.5-0.1-2.6-1.6-2.8v-0.8
			c1.2,0,2.4,0.1,3.7,0.1c1.2,0,2.5-0.1,3.7-0.1V18.7z"/>
		<path class="st1" d="M272.8,23.7h-1.5c-1.1-3.4-4.6-4.7-7.7-4.7c-6.2,0-8.8,5-8.8,11c0,10.1,7.3,11.8,10.2,11.8
			c2.9,0,5.5-1.2,7.1-3.7l1.1,0.5l-1.1,4c-2.9,0.5-4.6,0.8-7,0.8c-10.6,0-15.3-6.6-15.3-13c0-7.3,5.7-12.8,13.7-12.8
			c4.6,0,6.4,0.8,8.9,1.4L272.8,23.7z"/>
		<path class="st1" d="M296.3,22.8H295c-1-2.7-3.2-3.8-5.8-3.8c-2.4,0-4.6,2-4.6,4.5c0,7.5,12.2,2.9,12.2,12.5c0,4.6-4,7.2-8.2,7.2
			c-2.3,0-5.2-0.9-6.3-1.6l-0.4-3.8h1.3c0.6,2.4,3.1,4,5.4,4c2.7,0,4.8-1.8,4.8-4.5c0-6.3-12.2-2.6-12.2-11.9c0-4.7,3.8-7.8,8.3-7.8
			c2.4,0,4.8,0.3,6.9,1.4V22.8z"/>
		<path class="st1" d="M302.9,19.5c0,0.4-0.3,0.6-0.6,0.6h-0.4v-1.2h0.3C302.7,18.9,302.9,19.1,302.9,19.5 M303.8,21.8v-0.3h-0.2
			c-0.1,0-0.2-0.1-0.2-0.1l-0.6-1.1c0.5-0.1,0.8-0.4,0.8-0.9c0-0.6-0.4-0.9-1.2-0.9h-1.4v0.3h0.5v2.7h-0.5v0.3h1.5v-0.3h-0.5v-1.2
			h0.3l0.8,1.4H303.8z M304.7,20.2c0,1.3-1.1,2.4-2.4,2.4c-1.3,0-2.4-1.1-2.4-2.4c0-1.3,1.1-2.4,2.4-2.4
			C303.6,17.8,304.7,18.9,304.7,20.2 M305.1,20.2c0-1.6-1.3-2.9-2.9-2.9c-1.6,0-2.9,1.3-2.9,2.9c0,1.6,1.3,2.9,2.9,2.9
			C303.8,23.1,305.1,21.8,305.1,20.2"/>
	</g>
</g>
</svg>
